<?xml version="1.0" standalone="no"?>
<!DOCTYPE svg PUBLIC "-//W3C//DTD SVG 20010904//EN"
 "http://www.w3.org/TR/2001/REC-SVG-20010904/DTD/svg10.dtd">
<svg version="1.0" xmlns="http://www.w3.org/2000/svg"
 width="256.000000pt" height="256.000000pt" viewBox="0 0 256.000000 256.000000"
 preserveAspectRatio="xMidYMid meet">
<metadata>
Created by potrace 1.14, written by Peter Selinger 2001-2017
</metadata>
<g transform="translate(0.000000,256.000000) scale(0.100000,-0.100000)"
fill="#000000" stroke="none">
<path d="M1420 2448 c-25 -11 -52 -26 -60 -33 -8 -7 -29 -16 -47 -20 -18 -3
-48 -17 -67 -30 -65 -44 -72 -46 -109 -30 -19 8 -37 12 -40 8 -4 -3 -14 -2
-24 2 -39 17 -60 11 -112 -28 -29 -23 -55 -47 -58 -54 -3 -7 -21 -21 -41 -30
-20 -10 -44 -25 -53 -34 -9 -9 -23 -21 -30 -25 -8 -5 -21 -22 -29 -39 -9 -16
-26 -34 -38 -40 -12 -5 -22 -13 -22 -17 0 -5 -6 -8 -13 -8 -7 0 -24 -8 -37
-17 -24 -17 -72 -38 -115 -50 -35 -9 -124 -54 -135 -68 -6 -7 -36 -23 -68 -36
-31 -12 -59 -26 -62 -29 -3 -3 -19 -12 -37 -19 -42 -17 -60 -38 -45 -53 6 -6
8 -16 5 -23 -2 -8 0 -23 6 -34 6 -11 13 -39 16 -63 7 -58 14 -78 37 -111 11
-16 24 -24 31 -20 7 4 6 -1 -2 -11 -22 -26 -23 -74 -4 -131 20 -60 23 -199 4
-233 -19 -35 -17 -101 4 -116 17 -12 17 -13 -2 -18 -23 -6 -53 -64 -57 -111
-2 -17 -5 -39 -8 -47 -3 -8 -10 -32 -16 -53 l-11 -39 62 -30 c34 -16 76 -38
92 -48 17 -10 40 -19 52 -19 24 -1 53 -35 53 -63 0 -9 10 -19 23 -23 25 -7 34
-11 127 -53 36 -16 106 -47 155 -68 50 -21 155 -71 233 -112 107 -55 156 -75
190 -77 26 -2 72 -16 102 -31 51 -25 166 -74 299 -126 l54 -22 16 21 c9 12 27
35 40 53 13 17 32 45 41 63 9 18 27 37 38 43 12 6 32 24 44 40 12 16 25 31 29
34 3 3 10 16 14 30 13 47 47 110 58 110 7 0 25 7 41 15 16 8 34 14 40 14 14
-3 34 5 121 46 39 19 95 45 126 59 l56 24 -8 49 c-4 26 -8 69 -8 95 -1 47 -17
97 -36 110 -7 5 -5 15 4 30 7 12 13 42 13 67 -1 27 5 56 15 71 9 14 16 39 15
56 -2 26 4 35 33 55 37 26 95 98 95 121 0 7 12 24 26 37 14 13 32 37 40 53 15
28 14 31 -14 57 -16 16 -31 35 -35 44 -3 9 -24 27 -46 41 -25 16 -43 37 -51
60 -6 19 -22 42 -36 50 -13 9 -24 22 -24 29 0 7 -13 17 -28 23 -26 10 -29 16
-30 59 -1 26 -9 59 -17 74 -7 14 -17 56 -20 94 -7 67 -7 67 -48 87 -22 11 -50
20 -62 20 -12 0 -30 9 -40 20 -10 11 -22 20 -26 20 -4 0 -20 5 -36 11 -15 7
-42 11 -60 10 -71 -5 -192 84 -193 141 0 14 -58 64 -108 93 -17 11 -34 26 -37
35 -4 14 -89 91 -97 89 -2 0 -23 -10 -48 -21z"/>
</g>
</svg>
