<?xml version="1.0" standalone="no"?>
<!DOCTYPE svg PUBLIC "-//W3C//DTD SVG 20010904//EN"
 "http://www.w3.org/TR/2001/REC-SVG-20010904/DTD/svg10.dtd">
<svg version="1.0" xmlns="http://www.w3.org/2000/svg"
 width="1615.000000pt" height="1615.000000pt" viewBox="0 0 1615.000000 1615.000000"
 preserveAspectRatio="xMidYMid meet">
<metadata>
Created by potrace 1.14, written by Peter Selinger 2001-2017
</metadata>
<g transform="translate(0.000000,1615.000000) scale(0.100000,-0.100000)"
fill="#000000" stroke="none">
<path d="M8567 16074 c-2 -2 -17 -6 -33 -8 -58 -8 -139 -29 -151 -38 -7 -6
-13 -8 -13 -5 0 3 -25 -3 -55 -14 -30 -10 -64 -19 -75 -19 -11 0 -20 -4 -20
-10 0 -5 -11 -10 -25 -10 -14 0 -44 -9 -65 -20 -22 -11 -40 -19 -40 -16 0 2
-19 -1 -42 -6 -24 -5 -59 -12 -78 -14 -19 -2 -48 -9 -64 -16 -35 -14 -99 -15
-400 -4 l-219 8 -24 28 c-21 25 -44 34 -128 45 -5 1 -20 -2 -31 -6 -12 -4 -25
-5 -28 -1 -13 12 -181 9 -234 -5 -29 -7 -66 -13 -82 -13 -16 0 -40 -5 -54 -11
-20 -10 -34 -9 -70 5 -25 10 -71 21 -103 26 -32 5 -69 12 -83 15 -46 12 -105
11 -139 -2 -18 -7 -44 -13 -57 -13 -12 0 -26 -4 -29 -10 -3 -5 -15 -10 -26
-10 -11 0 -27 -7 -36 -15 -8 -8 -18 -13 -23 -10 -4 3 -13 -2 -20 -10 -7 -8
-21 -15 -31 -15 -11 0 -19 -4 -19 -9 0 -5 -12 -12 -27 -16 -31 -7 -83 -61 -83
-86 0 -17 -21 -30 -54 -34 -11 -1 -28 -12 -38 -25 -11 -13 -44 -32 -75 -42
-31 -11 -71 -30 -88 -44 -18 -14 -43 -27 -56 -29 -41 -8 -123 -37 -170 -61
-31 -15 -63 -23 -99 -22 -30 0 -56 -5 -60 -12 -4 -6 -21 -13 -38 -16 -18 -2
-45 -6 -61 -8 -17 -2 -31 0 -33 5 -6 17 -100 9 -111 -8 -10 -16 -47 -17 -47
-2 0 5 -6 7 -12 3 -7 -5 -19 -9 -28 -11 -8 -1 -37 -7 -65 -11 -68 -12 -115
-36 -145 -72 -13 -16 -32 -30 -43 -30 -27 0 -77 -28 -114 -63 -25 -23 -34 -42
-39 -79 -5 -35 -11 -48 -23 -48 -21 0 -91 -64 -91 -83 0 -8 -7 -28 -15 -43 -8
-17 -12 -43 -10 -64 6 -37 -7 -61 -38 -73 -14 -5 -18 -16 -16 -39 2 -41 -10
-106 -22 -114 -16 -10 -9 -65 11 -92 l21 -25 -27 -28 c-20 -21 -25 -35 -22
-59 3 -17 1 -33 -4 -36 -25 -16 2 -104 33 -104 18 0 2 -61 -20 -77 l-23 -15
51 -48 c28 -26 51 -53 51 -58 0 -6 -19 -21 -42 -34 -48 -26 -66 -68 -29 -68
12 0 21 -5 21 -11 0 -6 7 -8 16 -5 10 4 6 -5 -10 -25 -43 -51 -46 -101 -8
-158 22 -33 21 -54 -2 -80 -11 -12 -15 -21 -11 -21 4 0 -2 -8 -13 -19 -12 -10
-18 -21 -14 -25 4 -5 0 -7 -8 -5 -20 3 -51 -11 -45 -20 2 -4 -2 -8 -10 -8 -8
0 -15 8 -15 17 0 9 -9 26 -21 39 -17 19 -23 20 -37 9 -12 -10 -14 -10 -8 0 12
20 -5 13 -24 -10 l-19 -23 6 25 c6 23 5 24 -12 10 -11 -9 -16 -10 -11 -2 9 15
-15 17 -30 2 -6 -6 -18 0 -35 19 -24 27 -24 30 -7 34 10 3 18 12 18 20 0 26
-28 27 -52 2 -30 -32 -70 -34 -68 -2 4 42 0 52 -28 68 -30 17 -52 15 -52 -6 0
-30 -34 -25 -67 11 -18 20 -33 41 -33 46 0 5 -4 6 -10 3 -6 -3 -10 -2 -10 2 0
20 -39 32 -72 22 -34 -9 -88 4 -88 22 0 5 -9 13 -20 19 -15 8 -27 7 -50 -5
-32 -17 -64 -13 -87 10 -14 15 -47 9 -63 -10 -12 -14 -50 -9 -50 7 0 7 -18 8
-47 3 -27 -4 -55 -7 -63 -7 -22 1 -70 -19 -70 -28 0 -5 -16 -14 -35 -20 -19
-6 -35 -16 -35 -21 0 -5 -8 -9 -19 -9 -36 0 -105 -31 -147 -65 -41 -34 -94
-113 -94 -141 0 -8 -10 -19 -22 -25 -30 -14 -91 -119 -117 -200 -12 -35 -26
-79 -32 -98 -6 -18 -12 -48 -14 -65 -6 -78 -51 -111 -111 -84 -23 11 -29 10
-45 -11 -25 -30 -24 -44 3 -56 12 -6 24 -16 26 -23 4 -12 0 -12 -19 -1 -13 7
-37 13 -54 14 -42 2 -76 15 -70 25 3 5 13 6 23 3 15 -6 15 -5 3 10 -19 24 -86
22 -110 -2 -14 -14 -18 -28 -14 -55 3 -22 0 -36 -6 -36 -6 0 -11 -4 -11 -10 0
-5 7 -10 15 -10 18 0 20 -21 3 -39 -7 -8 -8 -11 -2 -8 6 3 11 0 11 -8 0 -8 -2
-15 -5 -15 -6 0 -73 59 -70 62 1 2 -7 13 -17 26 -23 27 -56 28 -78 4 -20 -22
-21 -47 -6 -91 16 -44 1 -60 -42 -44 -17 7 -37 9 -45 6 -24 -9 -46 -69 -43
-117 2 -35 -1 -49 -15 -59 -25 -18 -28 -134 -5 -199 17 -47 16 -86 -3 -124 -9
-19 -21 -22 -87 -26 -67 -4 -83 -9 -115 -34 -20 -16 -39 -39 -42 -51 -6 -21
-40 -41 -51 -29 -3 3 -15 0 -27 -6 -19 -10 -20 -10 -7 6 12 14 12 16 -3 10
-12 -5 -15 -2 -10 10 3 8 9 15 12 14 22 -2 22 4 -2 23 -20 16 -34 19 -59 14
-17 -4 -36 -11 -42 -15 -5 -4 -21 -10 -35 -13 -14 -3 -34 -13 -45 -22 -11 -9
-15 -14 -9 -11 10 5 20 -15 30 -61 1 -6 -7 -13 -18 -16 -19 -5 -38 24 -38 59
0 11 -6 13 -22 8 -36 -10 -48 -24 -48 -54 0 -30 -17 -41 -52 -35 -32 7 -83
-20 -109 -57 -20 -27 -21 -34 -10 -62 22 -54 20 -59 -25 -61 -83 -5 -132 -53
-120 -119 4 -20 10 -36 14 -36 10 0 35 -60 28 -67 -3 -4 -18 -8 -33 -9 -40 -4
-77 -37 -81 -70 -6 -43 16 -102 43 -120 l25 -16 -40 -29 c-40 -29 -50 -55 -28
-77 6 -6 11 -34 11 -62 -1 -46 2 -53 33 -76 29 -23 32 -28 19 -41 -8 -8 -15
-24 -15 -36 1 -35 37 -107 55 -107 10 0 15 -10 15 -30 0 -31 34 -80 57 -80 16
0 17 -22 1 -38 -9 -9 -9 -15 -1 -23 8 -8 13 -8 17 0 4 6 13 11 21 11 11 0 12
-6 4 -28 -18 -51 25 -111 68 -95 7 3 15 -7 19 -21 7 -31 30 -51 58 -51 16 0
20 -7 21 -35 2 -55 46 -120 82 -120 7 0 13 -7 13 -15 0 -50 56 -103 90 -85 15
8 21 6 28 -7 9 -15 12 -15 27 -3 9 8 24 15 33 16 8 2 18 7 21 12 8 12 91 12
91 0 0 -5 5 -6 10 -3 6 3 17 -1 26 -9 9 -9 20 -14 25 -10 5 3 8 0 7 -8 -2 -7
3 -12 10 -10 8 1 11 -2 7 -8 -4 -7 2 -14 14 -17 11 -3 18 -9 15 -14 -3 -5 2
-9 11 -9 9 0 13 -4 10 -10 -3 -5 -1 -10 4 -10 6 0 11 -10 11 -21 0 -19 2 -20
17 -8 10 7 15 9 10 4 -4 -4 1 -17 10 -28 10 -11 13 -17 6 -14 -7 5 -9 0 -6
-13 4 -15 11 -19 27 -15 17 5 18 4 6 -4 -9 -6 -10 -11 -3 -11 18 0 3 -41 -34
-90 -67 -88 -100 -173 -108 -276 -6 -78 -12 -86 -56 -79 -22 4 -47 8 -57 10
-27 4 -48 -11 -62 -45 -10 -23 -19 -30 -40 -30 -16 0 -35 -7 -44 -15 -8 -8
-19 -15 -25 -15 -5 0 -13 -5 -17 -12 -5 -7 -3 -8 6 -3 9 5 11 4 6 -3 -5 -9
-15 -8 -37 3 -16 9 -27 20 -24 25 3 5 1 11 -4 15 -12 7 -30 -25 -24 -42 7 -20
-56 -17 -64 3 -3 9 0 20 8 24 22 14 4 21 -25 11 -14 -6 -26 -17 -26 -25 0 -24
-29 -26 -45 -3 -19 27 -19 44 -1 63 20 19 29 18 22 -3 -5 -17 9 -54 16 -43 20
32 27 50 17 50 -5 0 -7 5 -3 12 12 20 15 68 3 68 -5 0 -7 5 -4 10 14 23 -39 8
-88 -25 -28 -19 -63 -35 -78 -35 -32 0 -42 -9 -28 -27 9 -10 2 -17 -36 -34
-25 -11 -49 -18 -52 -15 -3 3 2 9 12 13 10 3 26 14 36 24 16 16 16 17 -4 24
-50 16 -87 16 -93 0 -5 -11 -15 -13 -43 -9 -28 5 -42 2 -55 -11 -15 -16 -16
-20 -3 -32 11 -12 19 -12 35 -4 17 9 23 8 31 -7 8 -14 6 -18 -11 -19 -12 -1
-25 -8 -29 -15 -7 -10 -11 -10 -21 1 -11 12 -10 13 2 6 16 -9 -14 31 -40 52
-12 10 -17 9 -27 -4 -7 -9 -10 -19 -8 -23 2 -4 -7 -5 -22 -2 -21 4 -25 2 -20
-11 8 -22 -13 -34 -25 -13 -21 38 -36 0 -15 -42 14 -29 1 -42 -47 -49 -38 -5
-45 7 -18 35 10 11 10 17 1 29 -7 7 -15 10 -18 6 -3 -4 -15 -13 -26 -19 -11
-6 -21 -23 -23 -37 -3 -21 -7 -25 -28 -21 -26 5 -84 -31 -84 -52 0 -7 -9 -16
-20 -19 -26 -8 -26 -45 1 -79 18 -23 19 -28 5 -41 -18 -19 -27 -19 -20 -1 4
11 -2 13 -28 9 -41 -6 -54 -16 -67 -54 -9 -27 -7 -31 25 -56 43 -35 45 -61 5
-69 -41 -8 -72 -40 -67 -67 9 -45 19 -58 62 -78 52 -23 57 -47 14 -71 -17 -9
-30 -24 -30 -33 0 -21 40 -99 47 -91 6 6 33 -18 33 -30 0 -4 7 -15 15 -24 9
-10 17 -26 20 -37 2 -12 9 -30 16 -41 12 -19 15 -20 30 -6 14 13 18 13 30 -3
9 -11 10 -14 1 -9 -8 5 -12 1 -12 -12 0 -15 5 -19 20 -15 15 4 20 0 20 -16 0
-11 5 -21 11 -21 5 0 8 -4 5 -9 -12 -19 86 -75 117 -67 26 6 67 -28 67 -56 0
-19 53 -78 71 -78 5 0 39 -18 74 -41 36 -23 70 -37 76 -33 8 5 9 3 4 -6 -5 -9
-2 -10 13 -6 15 5 24 1 32 -14 6 -11 21 -20 33 -20 32 -1 57 -23 57 -51 0 -18
2 -21 9 -10 18 28 46 22 57 -12 5 -18 20 -37 34 -44 14 -7 34 -26 45 -43 12
-19 48 -45 94 -68 40 -20 90 -51 110 -68 33 -29 36 -36 35 -85 0 -30 -6 -85
-14 -124 -11 -64 -17 -75 -64 -121 -28 -28 -60 -54 -71 -58 -11 -3 -28 -20
-37 -37 -10 -16 -22 -27 -28 -24 -5 3 -10 0 -10 -8 0 -38 -98 -79 -119 -50 -3
4 -17 10 -31 11 -14 2 -31 9 -39 15 -12 10 -13 9 -7 -3 4 -8 0 -6 -8 4 -9 11
-16 17 -16 13 0 -4 -12 -2 -28 4 -22 8 -25 8 -14 -2 6 -7 12 -17 12 -22 0 -5
-14 6 -31 24 -25 26 -32 30 -40 18 -5 -8 -9 -9 -9 -4 0 6 -13 18 -29 28 -51
30 -106 4 -139 -67 -18 -37 -31 -49 -72 -67 -54 -23 -70 -42 -70 -82 0 -35 -8
-38 -46 -16 -19 10 -34 16 -34 13 0 -4 -6 -2 -13 4 -18 15 -43 -7 -51 -45 -4
-19 -12 -30 -19 -27 -13 4 -94 -33 -90 -41 5 -11 -10 -35 -22 -35 -22 0 -65
-62 -65 -94 -1 -39 -17 -61 -52 -69 -16 -4 -34 -19 -42 -35 -8 -16 -22 -34
-30 -41 -20 -16 -21 -79 -3 -106 18 -26 28 -55 19 -53 -30 9 -109 -69 -118
-116 -9 -49 0 -68 46 -96 28 -18 39 -30 38 -46 -1 -13 -5 -22 -8 -22 -24 2
-43 -5 -60 -22 -32 -32 -18 -96 29 -137 32 -28 35 -34 24 -52 -7 -11 -13 -26
-13 -32 0 -24 51 -120 78 -146 15 -15 34 -42 41 -60 7 -18 22 -35 32 -38 10
-4 19 -13 19 -21 0 -8 9 -14 20 -14 11 0 20 -5 20 -11 0 -5 5 -7 10 -4 6 4 10
3 9 -2 -4 -26 4 -33 37 -33 28 0 35 -3 30 -15 -7 -19 3 -45 18 -45 6 0 17 -9
24 -20 13 -22 43 -26 73 -9 17 9 21 7 26 -10 3 -11 13 -23 22 -26 10 -3 24
-16 30 -29 17 -30 51 -46 100 -46 38 0 86 -33 61 -42 -7 -2 -13 -19 -14 -38
-1 -25 -7 -36 -19 -38 -10 -2 -16 -9 -14 -15 2 -7 0 -20 -5 -31 -7 -13 -6 -21
3 -28 11 -6 9 -8 -6 -6 -12 2 -20 -3 -20 -12 -1 -8 -6 -24 -12 -35 -6 -11 -9
-37 -6 -59 2 -21 -1 -44 -8 -52 -8 -10 -8 -22 -1 -43 6 -16 8 -39 5 -51 -7
-27 10 -40 54 -40 l32 0 -24 -45 c-22 -42 -22 -47 -8 -75 14 -28 24 -35 48
-30 83 16 84 14 69 -80 -5 -31 -2 -37 29 -58 36 -24 56 -24 151 -7 36 7 37 7
30 -19 -14 -58 11 -86 95 -102 30 -6 51 -32 43 -54 -3 -8 -18 -28 -34 -44 -27
-27 -28 -30 -13 -52 14 -22 14 -26 -5 -52 -18 -24 -19 -32 -9 -54 10 -22 8
-29 -11 -48 -20 -20 -20 -23 -6 -39 19 -20 21 -52 5 -68 -20 -20 -14 -97 10
-137 19 -30 21 -41 13 -65 -8 -21 -7 -34 2 -48 7 -10 23 -50 35 -89 24 -77 86
-163 126 -177 13 -4 26 -18 29 -31 15 -60 148 -146 248 -160 26 -4 50 -11 53
-17 4 -5 14 -9 23 -9 10 0 35 -9 56 -20 60 -30 137 -37 314 -27 39 2 72 0 72
-4 0 -4 9 -5 20 -2 11 3 20 10 20 15 0 7 22 9 55 6 31 -3 58 -1 61 3 2 5 12 5
20 2 9 -3 19 -1 23 5 3 5 27 12 52 15 25 3 55 9 65 14 10 5 30 8 44 6 78 -11
109 -6 130 18 12 13 19 18 15 12 -3 -7 -1 -13 5 -13 8 0 10 -13 5 -42 -4 -24
-8 -47 -9 -53 0 -5 -9 -16 -18 -23 -10 -7 -18 -19 -18 -26 0 -6 -18 -31 -40
-54 -22 -22 -40 -48 -41 -57 -3 -55 -1 -86 4 -92 4 -3 7 -11 7 -17 0 -6 -8 1
-18 16 -24 37 -47 23 -26 -16 13 -27 13 -31 -6 -48 -11 -10 -20 -23 -20 -28 0
-6 -10 -10 -21 -10 -17 0 -19 -3 -11 -13 16 -18 3 -59 -25 -80 -16 -13 -22
-25 -18 -38 4 -11 2 -25 -3 -32 -5 -7 -12 -43 -15 -81 -5 -55 -11 -74 -31 -95
-43 -45 -52 -192 -15 -237 8 -10 6 -24 -12 -60 -39 -82 -27 -177 28 -223 35
-29 35 -31 23 -61 -17 -41 4 -89 71 -161 27 -29 49 -60 49 -69 0 -8 15 -24 34
-34 18 -10 39 -29 45 -43 7 -14 17 -23 25 -20 7 3 28 -8 46 -25 19 -17 40 -28
50 -25 22 6 50 -10 50 -28 0 -18 20 -20 20 -2 1 6 7 0 15 -15 14 -25 41 -41
61 -37 24 5 74 -16 79 -32 8 -24 41 -42 64 -34 13 4 30 -8 61 -45 44 -52 104
-93 152 -104 19 -4 30 -15 34 -34 12 -47 33 -80 87 -137 82 -86 92 -98 94
-127 4 -38 42 -97 67 -104 15 -3 22 -13 22 -27 -1 -14 9 -26 27 -35 24 -12 32
-23 28 -45 0 -4 4 -8 9 -8 6 -1 15 -2 20 -3 6 0 16 -12 23 -25 7 -13 29 -33
50 -44 21 -11 41 -26 44 -33 3 -8 18 -14 33 -14 15 0 33 -7 40 -15 7 -9 19
-14 27 -11 8 3 11 1 8 -4 -4 -6 5 -7 23 -4 16 3 32 1 36 -4 3 -6 23 -8 45 -5
23 3 41 1 45 -6 4 -6 14 -11 22 -11 8 0 25 -11 37 -24 12 -13 31 -26 43 -30
12 -3 26 -18 32 -31 6 -14 19 -25 27 -25 16 0 74 -36 87 -55 5 -7 8 -7 8 0 0
6 5 3 10 -5 9 -13 11 -13 20 0 5 8 10 10 10 3 0 -6 8 -9 19 -6 13 3 21 -2 26
-17 4 -13 12 -19 21 -16 7 3 16 1 19 -3 3 -5 14 -7 24 -4 13 3 23 -2 31 -17
11 -21 12 -21 33 -3 13 12 18 13 12 3 -8 -13 -7 -13 8 -1 15 12 17 11 17 -2 0
-21 23 -33 85 -42 28 -5 56 -9 62 -11 7 -1 15 1 18 6 11 18 110 -1 251 -49 82
-27 175 -55 206 -61 38 -8 67 -21 87 -40 34 -31 111 -73 153 -84 16 -4 34 -18
43 -36 8 -16 32 -39 53 -49 21 -11 44 -27 51 -35 7 -9 17 -13 22 -10 5 3 9 0
9 -5 0 -6 3 -10 8 -10 22 4 33 -4 46 -36 10 -24 21 -35 36 -35 11 0 23 -7 26
-15 4 -8 17 -15 29 -15 15 0 32 -12 46 -31 15 -21 25 -27 32 -20 7 7 17 3 33
-14 14 -15 29 -22 42 -19 14 4 21 0 25 -15 5 -21 27 -30 27 -11 0 16 18 12 38
-10 11 -12 27 -18 40 -15 12 2 24 0 27 -6 4 -5 13 -9 21 -9 8 0 13 4 10 9 -3
5 1 11 9 15 8 3 15 2 15 -3 0 -13 52 -30 85 -27 17 2 29 8 28 14 -2 7 11 9 35
5 67 -9 89 -6 121 16 26 19 36 21 67 12 34 -9 64 -6 64 8 0 15 60 31 115 29
36 -1 72 4 90 13 25 12 39 12 90 2 55 -12 163 -31 210 -38 89 -12 123 -19 146
-31 14 -7 37 -11 52 -10 18 2 28 -2 32 -14 3 -9 22 -25 43 -35 20 -10 45 -22
55 -27 9 -4 31 -6 48 -3 22 4 35 1 43 -11 11 -15 15 -15 42 -1 27 13 31 13 53
-9 14 -13 29 -20 35 -16 18 11 36 11 36 1 0 -6 5 -7 10 -4 6 4 18 1 26 -6 11
-9 18 -9 32 3 26 22 46 33 38 20 -16 -26 82 -37 146 -16 13 4 36 8 52 9 15 2
32 8 36 14 4 7 24 12 46 11 21 0 73 2 114 6 57 4 86 2 120 -11 43 -15 67 -23
82 -24 4 -1 13 -7 20 -13 33 -31 79 -58 98 -58 11 0 20 -4 20 -8 0 -5 12 -15
28 -23 15 -8 30 -18 34 -23 4 -6 24 -9 46 -8 30 2 45 -3 62 -21 20 -21 27 -23
51 -14 21 8 32 7 51 -5 21 -14 27 -14 61 -1 27 11 44 13 60 6 25 -11 83 7 70
21 -5 5 2 3 15 -3 16 -9 22 -9 22 0 0 6 9 9 20 6 11 -3 23 -1 26 4 3 5 13 9
24 9 10 0 20 7 24 15 3 9 18 15 40 15 19 0 41 6 48 13 24 23 90 58 117 61 41
6 60 16 66 37 5 15 16 19 53 19 54 1 115 20 143 46 12 11 39 19 67 21 66 4
175 21 253 39 49 11 76 13 102 6 24 -7 39 -6 46 1 6 6 11 8 11 4 0 -4 18 2 41
14 l41 20 22 -20 c12 -12 28 -21 34 -21 7 0 12 -4 12 -10 0 -13 67 -13 75 1 5
7 14 4 26 -7 19 -17 20 -17 26 4 4 18 8 20 19 11 8 -6 21 -8 31 -5 9 4 20 1
24 -6 6 -9 12 -8 27 6 17 14 23 15 40 5 16 -10 29 -10 64 1 23 7 55 12 71 11
17 -2 29 3 33 13 3 9 17 16 29 16 37 0 75 18 75 35 0 8 9 15 19 15 11 0 26 6
33 13 7 7 29 20 49 30 20 9 47 32 60 52 13 19 27 35 30 35 4 0 10 12 14 27 3
15 26 46 51 69 40 38 80 108 89 157 2 9 6 21 10 26 3 5 7 37 9 71 4 61 17 90
40 90 7 0 23 11 36 25 13 14 28 25 33 25 5 0 22 9 37 20 16 11 35 17 44 14 10
-4 24 2 35 15 13 15 33 22 68 24 31 2 57 10 68 20 10 11 26 15 42 12 16 -2 35
3 51 15 13 11 33 20 43 20 11 0 28 9 39 20 11 11 24 20 28 20 5 0 18 11 30 25
12 14 31 25 41 25 11 0 38 18 60 39 37 35 40 43 38 83 -2 42 -1 44 26 46 38 3
63 17 82 46 18 27 36 116 24 116 -5 0 -9 11 -9 24 0 14 -5 28 -10 31 -15 9 7
35 29 35 27 1 59 33 65 65 3 17 7 40 10 52 2 12 -2 46 -11 75 -21 73 -19 91
12 122 24 24 26 32 21 69 -8 57 -9 64 -3 123 5 52 -16 119 -35 108 -5 -3 -2
11 7 33 19 43 22 108 6 127 -6 7 -7 16 -3 20 4 4 2 6 -4 4 -11 -3 -64 46 -64
58 0 3 10 20 22 37 13 18 22 37 20 44 -5 23 39 98 87 151 l50 52 47 -10 c46
-11 121 -44 179 -80 17 -10 40 -19 52 -19 12 -1 25 -6 28 -12 6 -8 70 -7 112
2 13 3 66 -13 88 -26 11 -7 45 -21 75 -31 50 -18 92 -51 153 -123 19 -23 65
-28 98 -11 17 10 19 7 19 -25 0 -41 5 -43 36 -14 l22 21 7 -21 c3 -11 12 -18
19 -15 9 3 18 -6 24 -25 8 -23 15 -28 31 -24 12 3 36 -2 54 -11 19 -8 44 -14
56 -11 22 4 50 -7 82 -33 9 -7 39 -16 65 -19 27 -2 57 -9 66 -14 11 -6 25 -6
36 0 9 5 29 7 43 4 16 -3 32 2 43 12 14 15 23 16 59 6 69 -18 99 -21 138 -12
39 9 53 19 81 60 12 17 28 24 55 26 73 4 112 26 113 63 0 6 5 12 10 12 12 0
14 26 3 33 -5 2 -2 2 5 1 6 -2 12 1 12 6 0 5 15 13 33 18 23 6 33 15 35 32 2
13 10 30 18 37 8 8 12 18 9 23 -3 5 -1 11 5 15 5 3 10 17 10 29 0 13 7 29 15
36 20 16 30 77 16 94 -9 10 -8 16 4 26 9 7 13 23 10 38 -2 14 1 32 7 39 7 9 7
17 -1 27 -9 10 -9 16 -1 21 13 8 10 55 -5 71 -5 7 -13 10 -17 7 -5 -2 -8 3 -8
11 0 9 -6 16 -14 16 -9 0 -12 7 -9 20 3 11 8 20 12 20 11 0 41 57 41 78 0 11
-7 28 -15 36 -29 29 -45 68 -34 87 12 24 12 82 -2 96 -19 19 14 79 51 91 17 6
29 16 25 22 -3 5 -1 10 5 10 12 0 2 52 -12 61 -14 9 37 39 66 39 29 0 59 27
52 46 -3 8 -1 14 5 14 6 0 7 5 4 10 -3 6 1 10 9 10 27 0 24 52 -4 82 -17 19
-18 19 -29 1 -6 -10 -11 -13 -11 -5 0 8 -5 10 -12 6 -10 -6 -10 -5 -1 8 7 8 9
19 5 23 -4 5 -1 5 6 1 7 -4 12 -1 12 7 0 9 31 29 71 48 39 18 75 41 80 51 11
20 50 24 80 8 13 -8 19 -7 19 0 0 6 4 9 9 6 5 -3 14 8 21 25 l13 30 23 -22
c23 -21 30 -17 25 14 -1 8 12 10 52 7 17 -1 27 3 27 12 0 8 10 15 22 15 13 1
27 8 33 16 5 8 15 12 22 10 7 -3 18 5 25 16 7 12 18 21 25 21 7 0 13 4 13 8 0
4 14 16 30 25 17 10 30 23 30 28 0 6 7 17 15 25 8 9 15 26 15 39 0 18 8 26 33
34 32 11 67 57 67 89 0 9 -7 30 -15 46 -14 26 -14 31 1 47 9 10 20 16 24 14 5
-3 18 6 31 19 40 42 36 87 -12 135 -36 36 -33 62 12 88 27 16 35 32 29 58 -1
6 -4 21 -7 35 -2 14 -12 34 -22 45 -9 11 -25 32 -34 47 -16 25 -16 29 0 56 17
30 17 31 -26 116 -24 47 -47 83 -52 80 -5 -3 -9 -2 -10 3 0 4 -2 18 -3 30 -3
29 -35 64 -55 61 -9 -1 -33 6 -53 16 -43 21 -79 83 -72 124 15 78 -38 149
-114 155 -12 0 -22 5 -22 9 0 10 -104 11 -114 1 -3 -4 -14 -8 -24 -9 -40 -5
-77 -16 -82 -23 -3 -4 -15 -7 -28 -6 -13 1 -25 -2 -28 -7 -3 -4 -10 -8 -15 -8
-6 0 -7 5 -4 10 3 6 1 10 -5 10 -6 0 -18 7 -27 16 -9 8 -22 13 -31 9 -8 -3
-22 0 -30 7 -11 9 -14 9 -9 1 4 -6 3 -14 -2 -17 -11 -7 -4 129 8 152 5 9 12
33 15 52 12 76 62 188 101 227 8 7 17 22 20 33 3 11 11 20 16 20 15 0 39 27
31 34 -3 4 2 4 13 0 11 -4 17 -4 14 0 -4 4 4 19 17 33 21 23 32 27 82 26 31
-1 73 -3 92 -6 19 -2 41 0 48 6 8 6 12 6 12 -2 0 -12 32 -15 44 -4 10 11 46
14 46 4 0 -5 -8 -12 -17 -15 -14 -6 -15 -9 -3 -16 7 -5 14 -21 15 -37 6 -80
75 -161 143 -165 36 -2 93 12 87 22 -3 4 12 11 33 15 103 18 170 45 201 82 17
20 31 41 31 46 0 5 20 -9 45 -32 52 -47 80 -52 133 -19 20 12 43 23 52 23 8 1
24 2 36 3 11 1 30 11 42 23 13 11 30 22 40 24 63 12 77 28 73 77 -2 21 28 38
69 38 33 0 105 42 114 66 3 9 -2 30 -11 47 -21 38 -24 67 -9 73 6 2 29 5 51 8
59 7 76 16 90 49 11 27 10 34 -8 59 -11 15 -23 25 -27 23 -4 -2 -12 6 -17 18
-11 24 1 72 16 63 11 -7 71 13 72 25 1 5 2 15 3 22 1 6 0 17 -3 22 -3 6 -6 16
-7 22 -3 16 -24 37 -46 46 -24 9 -23 49 2 65 26 16 26 59 1 67 -21 6 -37 35
-20 35 6 0 6 6 0 19 -6 10 -7 21 -4 25 3 3 0 6 -8 6 -8 0 -27 11 -43 25 -16
14 -24 25 -18 25 5 0 9 12 7 27 -2 25 -47 68 -70 68 -5 0 -19 19 -29 42 -19
40 -76 81 -96 68 -12 -7 -41 6 -34 16 7 11 -26 80 -46 97 -9 7 -37 11 -72 10
-32 -2 -57 0 -55 3 8 20 -95 81 -138 81 -36 0 -47 9 -52 43 -2 11 -8 22 -13
23 -6 2 -10 13 -10 24 0 11 -8 22 -20 25 -11 3 -17 9 -14 14 5 8 -3 11 -22 8
-4 0 -10 3 -13 8 -11 16 -85 40 -116 37 -70 -7 -106 -32 -140 -99 -20 -38 -23
-40 -70 -41 -28 -1 -56 3 -62 8 -9 7 -13 6 -13 -3 0 -9 -3 -10 -8 -4 -4 6 -18
11 -32 12 -77 3 -110 20 -110 54 0 16 -4 29 -9 29 -5 0 -12 9 -16 19 -3 11
-21 38 -39 62 -19 23 -33 47 -31 53 1 6 5 22 8 36 3 14 8 51 11 82 6 64 66
202 91 212 8 3 15 12 15 20 0 7 6 16 13 19 7 2 21 22 32 43 11 22 26 47 34 57
13 16 15 16 33 1 10 -10 18 -13 18 -8 0 5 9 -5 20 -23 10 -18 31 -40 45 -49
31 -20 115 -36 130 -24 10 8 16 10 33 10 5 0 18 9 29 20 25 22 74 35 70 17 -1
-6 3 -11 10 -12 6 0 14 -3 17 -6 11 -10 76 1 101 17 27 18 36 36 42 84 4 32
23 69 23 44 0 -19 78 -15 118 5 28 14 42 29 48 53 9 28 14 33 37 30 15 -1 27
2 27 8 0 5 4 10 9 10 12 0 71 58 71 70 0 4 11 11 25 14 14 4 23 10 20 15 -2 5
2 11 10 15 8 3 15 17 15 30 0 17 13 35 39 57 22 17 42 41 45 53 3 12 15 32 27
44 20 22 20 26 7 60 l-14 37 40 38 c53 51 55 91 7 133 l-33 30 41 48 c36 42
41 53 35 79 -3 17 -24 48 -45 68 -22 21 -39 40 -39 44 0 4 8 20 17 36 14 24
15 33 5 49 -6 11 -12 24 -12 30 0 10 -69 100 -117 155 -10 11 -17 23 -15 28 1
4 -6 7 -17 7 -18 0 -48 27 -43 39 1 3 -4 6 -10 6 -7 0 -25 15 -40 33 -15 18
-44 46 -65 61 -53 39 -71 61 -86 107 -10 29 -28 48 -68 76 -30 20 -60 37 -68
37 -7 1 -11 7 -8 15 3 7 0 19 -6 25 -9 9 -8 11 4 6 19 -7 70 38 71 63 2 39
-31 91 -71 112 -45 23 -76 62 -67 85 3 8 0 15 -6 15 -7 0 -7 4 1 13 6 8 8 17
4 20 -3 4 -2 7 3 7 6 0 19 7 30 16 10 8 13 12 5 8 -9 -5 -12 -3 -7 5 4 6 11 9
16 6 5 -3 11 -1 14 4 3 4 28 7 56 5 47 -2 53 0 86 34 46 47 66 85 60 117 -3
16 5 39 25 67 16 24 29 47 29 51 0 4 10 18 23 30 20 18 36 44 42 67 9 36 18
88 16 98 -1 6 2 12 7 12 5 0 10 24 10 53 1 28 4 76 8 105 8 68 0 99 -29 108
-12 5 -25 7 -29 6 -4 -1 -4 8 -1 21 18 74 10 117 -28 157 -23 23 -38 30 -68
30 -43 0 -51 9 -44 55 4 26 -1 35 -34 61 -26 21 -53 33 -86 36 -34 4 -54 13
-72 32 -13 14 -30 26 -38 26 -8 0 -20 6 -26 14 -11 13 -92 32 -119 27 -7 -1
-22 5 -33 13 -14 9 -33 12 -56 9 -19 -3 -44 0 -58 7 -17 9 -31 10 -54 2 -23
-8 -32 -7 -42 4 -17 20 -47 17 -59 -6 -14 -26 -87 -24 -96 3 -9 29 -31 19 -48
-24 -16 -40 -17 -41 -36 -24 -19 18 -40 31 -87 56 -18 10 -27 9 -49 -6 -15 -9
-48 -19 -73 -20 -40 -3 -51 -9 -83 -45 -38 -43 -47 -44 -78 -10 -18 21 -70 49
-96 53 -42 7 -99 -21 -151 -72 -23 -22 -46 -41 -51 -41 -6 0 -12 -5 -14 -12
-5 -13 -100 -26 -142 -18 -16 3 -34 14 -40 25 -10 18 -37 41 -43 37 -2 -1 -13
7 -26 18 -18 16 -24 32 -26 73 -1 28 -6 56 -11 61 -5 5 -5 19 0 32 5 13 6 24
2 24 -4 0 -7 45 -8 100 l-1 99 32 15 c39 19 66 48 68 75 1 11 4 21 8 21 11 0
28 74 28 120 -1 66 0 70 16 70 21 0 66 30 60 40 -3 4 1 13 9 19 8 7 13 28 11
56 -1 25 1 45 5 45 3 0 24 23 45 51 35 46 39 57 37 104 -2 42 3 59 24 90 16
24 24 49 23 69 -2 17 3 48 10 68 13 39 7 63 -24 88 -14 11 -13 17 11 57 14 24
24 54 22 66 -1 12 1 28 5 35 6 8 -7 27 -35 54 -42 40 -51 58 -36 68 13 10 17
81 5 108 -12 28 -41 59 -78 86 -12 8 -23 26 -24 39 -5 47 -47 95 -147 171 -22
17 -50 36 -61 43 -19 11 -117 105 -164 157 -12 13 -25 36 -29 50 -3 14 -9 26
-13 26 -3 0 -5 22 -4 50 1 27 -2 50 -7 50 -4 0 -7 8 -5 18 2 9 4 17 5 17 9 0
6 46 -5 70 -17 38 -26 85 -31 152 -4 66 -34 125 -92 184 -25 26 -47 56 -49 68
-2 13 -9 28 -16 34 -27 26 -83 65 -103 71 -12 3 -29 15 -39 26 -10 11 -24 20
-30 20 -7 0 -18 6 -24 14 -7 8 -20 13 -30 11 -10 -2 -24 5 -31 15 -7 9 -20 15
-30 13 -9 -3 -23 1 -31 9 -34 33 -111 50 -124 27 -5 -7 -14 -5 -28 4 -12 8
-45 16 -74 19 -28 3 -58 11 -67 19 -29 27 -41 35 -71 51 -16 8 -84 43 -150 77
-66 35 -140 82 -165 105 -25 23 -69 57 -97 76 -29 19 -53 38 -53 42 0 10 -219
226 -247 245 -12 8 -25 23 -28 34 -4 10 -12 19 -19 19 -7 0 -21 8 -32 19 -28
25 -101 72 -146 93 -71 32 -150 45 -264 43 -123 -3 -144 -6 -263 -41 -46 -14
-96 -26 -110 -26 -41 -1 -216 60 -236 82 -10 11 -27 20 -37 20 -28 0 -76 27
-88 51 -13 23 -89 59 -128 59 -15 0 -36 7 -46 15 -11 8 -28 13 -37 10 -10 -3
-20 -1 -24 5 -3 5 -24 10 -45 10 -21 0 -41 4 -44 9 -10 16 -154 25 -171 11
-23 -19 -84 -21 -165 -4 -41 8 -132 26 -201 39 -69 13 -144 32 -165 42 -100
50 -201 106 -222 124 -12 10 -26 19 -31 19 -5 0 -11 4 -13 9 -4 12 -214 151
-227 151 -5 0 -32 11 -59 25 -68 34 -177 55 -282 54 -49 0 -90 -3 -93 -5z
m-4231 -2316 c4 -7 3 -8 -4 -4 -7 4 -12 2 -12 -5 0 -7 -3 -10 -6 -6 -6 5 3 27
11 27 2 0 7 -5 11 -12z m-2245 -761 c-10 -9 -11 -8 -5 6 3 10 9 15 12 12 3 -3
0 -11 -7 -18z m-576 -587 c3 -6 -1 -7 -9 -4 -18 7 -21 14 -7 14 6 0 13 -4 16
-10z m-53 -1652 c-7 -7 -12 -8 -12 -2 0 14 12 26 19 19 2 -3 -1 -11 -7 -17z
m-240 -783 c-2 -14 -9 -28 -16 -32 -20 -13 -53 -10 -53 4 0 8 6 12 14 9 7 -3
13 -1 13 4 0 6 6 10 14 10 8 0 16 7 20 15 9 23 14 18 8 -10z m-376 -82 c-10
-11 -19 -7 -22 10 -2 15 0 16 12 6 8 -6 12 -14 10 -16z m13669 -2303 c-3 -5 1
-10 9 -10 9 0 16 -5 16 -11 0 -5 6 -7 13 -3 9 5 9 4 1 -5 -9 -10 -16 -9 -32 5
-18 15 -21 34 -6 34 3 0 2 -4 -1 -10z m-14060 -1320 c-3 -5 -12 -10 -18 -10
-7 0 -6 4 3 10 19 12 23 12 15 0z m14075 -3 c0 -1 -9 -10 -20 -20 -16 -13 -20
-14 -20 -3 0 8 8 17 18 19 9 3 18 5 20 6 1 0 2 0 2 -2z m54 -15 c-5 -4 -17
-17 -26 -30 -13 -18 -17 -20 -21 -8 -6 15 27 46 48 46 6 0 6 -3 -1 -8z
m-14027 -39 c-4 -3 1 -12 11 -19 13 -10 14 -12 2 -11 -8 2 -21 6 -29 11 -11 7
-11 10 0 17 17 10 25 12 16 2z m13883 -624 c0 -5 6 -7 13 -3 8 5 7 2 -2 -9
-12 -15 -12 -17 3 -11 12 5 15 2 10 -10 -5 -13 -9 -14 -20 -5 -8 6 -14 19 -14
28 0 14 -2 14 -10 1 -5 -8 -10 -10 -10 -4 0 6 3 14 7 17 10 10 23 8 23 -4z
m-11965 -1499 c-3 -5 -10 -10 -16 -10 -5 0 -9 5 -9 10 0 6 7 10 16 10 8 0 12
-4 9 -10z m52 -6 c-3 -3 -12 -4 -19 -1 -8 3 -5 6 6 6 11 1 17 -2 13 -5z m9636
-1096 c34 -16 44 -38 14 -30 -24 6 -67 42 -51 42 6 0 22 -6 37 -12z"/>
</g>
</svg>
